<?xml version="1.0" standalone="no"?>
<!DOCTYPE svg PUBLIC "-//W3C//DTD SVG 20010904//EN"
 "http://www.w3.org/TR/2001/REC-SVG-20010904/DTD/svg10.dtd">
<svg version="1.0" xmlns="http://www.w3.org/2000/svg"
 width="512.000000pt" height="512.000000pt" viewBox="0 0 512.000000 512.000000"
 preserveAspectRatio="xMidYMid meet">
<metadata>
Created by potrace 1.16, written by Peter Selinger 2001-2019
</metadata>
<g transform="translate(0.000000,512.000000) scale(0.100000,-0.100000)"
fill="#000000" stroke="none">
<path d="M255 4858 c-3 -7 -4 -1046 -3 -2308 l3 -2295 2305 0 2305 0 0 2305 0
2305 -2303 3 c-1837 2 -2304 0 -2307 -10z m878 -597 c4 0 7 -7 7 -15 0 -10
-16 -17 -47 -22 -73 -10 -110 -29 -130 -66 -17 -31 -18 -76 -21 -643 -2 -406
1 -643 8 -708 24 -206 78 -341 180 -451 115 -123 210 -165 390 -173 139 -6
220 10 324 65 177 93 271 249 317 527 15 93 24 1091 11 1246 -14 162 -30 181
-162 200 -69 10 -95 24 -71 38 14 9 607 9 615 1 2 -3 160 -394 351 -870 191
-476 350 -868 354 -873 4 -4 162 316 351 710 491 1026 470 983 491 983 10 0
21 -4 24 -10 3 -5 51 -423 105 -927 55 -505 104 -936 111 -958 33 -118 94
-164 232 -174 85 -6 110 -23 62 -41 -32 -12 -501 5 -540 20 -30 11 -30 13 -7
36 11 12 17 32 16 63 -1 76 -128 1451 -134 1451 -3 0 -158 -332 -345 -737
-187 -405 -351 -754 -365 -775 -30 -47 -55 -56 -82 -31 -11 10 -103 185 -204
388 -205 414 -520 1141 -575 1325 l-34 114 -6 -539 c-5 -442 -9 -557 -23 -635
-46 -259 -128 -415 -285 -540 -166 -133 -386 -192 -624 -170 -228 22 -370 82
-502 215 -114 113 -162 209 -211 420 -14 59 -18 170 -23 735 -7 736 -6 721
-72 755 -17 9 -61 21 -96 26 -76 11 -88 16 -74 33 8 10 88 12 343 11 183 -2
336 -3 341 -4z m-246 -2699 c-13 -15 -17 -39 -17 -113 0 -154 25 -204 101
-204 29 0 46 7 67 28 26 27 27 31 30 155 4 126 4 128 -20 139 -20 10 -17 12
31 12 52 1 53 0 38 -17 -14 -15 -17 -40 -17 -126 0 -119 -13 -164 -54 -191
-63 -42 -159 -24 -196 37 -17 28 -20 50 -20 150 0 109 -1 118 -22 132 -21 15
-20 16 36 16 57 0 58 -1 43 -18z m473 -119 c67 -73 124 -133 126 -133 2 0 4
56 4 123 0 119 -1 124 -22 135 -20 9 -15 11 32 11 48 0 53 -1 38 -13 -16 -12
-18 -33 -18 -175 0 -90 -4 -161 -9 -161 -5 0 -67 61 -138 135 l-128 136 3
-126 c3 -119 4 -127 25 -135 16 -6 7 -9 -38 -9 -46 0 -55 2 -37 9 22 9 22 13
22 176 0 91 4 164 9 162 4 -1 63 -63 131 -135z m368 123 c-16 -12 -18 -32 -18
-165 0 -148 1 -152 23 -161 16 -6 5 -9 -43 -8 -36 0 -57 2 -48 5 21 5 32 93
27 223 -3 77 -7 94 -23 106 -18 13 -14 14 40 14 51 -1 57 -2 42 -14z m159 1
c-16 -11 -14 -21 30 -139 26 -70 51 -124 55 -120 4 4 28 61 53 127 43 112 45
120 29 132 -15 11 -10 13 35 13 52 0 53 0 32 -17 -12 -10 -50 -87 -85 -172
-36 -85 -69 -158 -74 -163 -6 -6 -33 52 -72 149 -42 107 -71 165 -89 180 l-26
23 64 0 c55 0 62 -2 48 -13z m473 -17 c0 -16 -4 -30 -10 -30 -5 0 -10 6 -10
14 0 9 -15 15 -45 18 l-45 3 0 -68 0 -68 50 6 50 6 0 -33 c-1 -27 -2 -30 -11
-15 -7 12 -22 17 -50 17 l-40 0 3 -72 3 -73 42 -3 c33 -3 44 1 58 20 l16 23
-3 -30 -3 -30 -100 -2 c-55 0 -93 1 -83 4 13 3 18 22 23 90 11 125 2 220 -21
238 -17 13 -8 14 79 15 l97 0 0 -30z m259 19 c63 -22 75 -93 27 -154 l-24 -30
46 -58 c51 -65 77 -87 104 -87 14 0 18 8 18 38 l1 37 13 -31 c30 -69 126 -48
126 28 0 12 -27 46 -65 83 -57 54 -65 66 -65 99 0 58 35 86 105 86 l55 0 0
-37 -1 -38 -15 28 c-12 22 -21 27 -54 27 -29 0 -42 -5 -50 -19 -18 -35 -11
-49 57 -115 62 -59 68 -69 68 -105 0 -31 -7 -48 -28 -69 -27 -26 -30 -27 -130
-24 -114 3 -118 5 -184 95 -30 41 -39 47 -70 47 l-36 0 7 -46 c3 -26 6 -55 6
-65 0 -10 9 -19 23 -22 12 -2 -7 -4 -43 -4 -36 -1 -57 1 -47 4 15 4 17 20 17
160 0 137 -2 157 -17 169 -16 12 -8 13 53 14 39 0 85 -5 103 -11z m529 0 c-16
-9 -18 -28 -18 -169 0 -157 0 -159 23 -163 12 -2 -7 -4 -43 -4 -36 -1 -57 1
-47 4 15 4 17 20 17 160 0 137 -2 157 -17 169 -16 12 -10 13 42 13 46 0 56 -2
43 -10z m357 -14 c104 -52 122 -190 36 -276 -49 -49 -97 -61 -208 -52 -48 4
-80 9 -70 11 15 3 17 19 17 159 0 136 -2 158 -17 170 -31 24 191 13 242 -12z
m335 -125 c66 -171 75 -188 102 -193 13 -2 1 -5 -27 -5 l-50 -2 -20 63 -20 62
-53 3 c-49 3 -53 1 -63 -25 -20 -53 -23 -85 -8 -94 9 -6 -5 -9 -41 -8 -40 0
-49 3 -34 9 11 4 26 21 32 37 9 23 90 243 108 292 8 24 20 2 74 -139z m354
140 c113 -26 167 -140 116 -244 -40 -83 -108 -111 -240 -100 -49 4 -76 10 -68
15 10 6 14 48 16 158 3 146 3 149 -20 165 -21 15 -18 16 67 16 50 0 108 -5
129 -10z m-3053 -650 c-7 -18 -10 -20 -10 -7 -1 21 -39 37 -87 37 l-34 0 0
-85 c0 -96 -3 -93 88 -76 l42 8 0 -38 c0 -22 -4 -39 -10 -39 -5 0 -10 6 -10
14 0 18 -22 26 -71 26 l-39 0 0 -82 c0 -46 4 -89 9 -96 5 -9 25 -12 62 -10 45
3 55 7 67 28 12 24 12 23 10 -15 l-3 -40 -117 -3 c-76 -2 -118 1 -118 8 0 5 6
10 14 10 8 0 17 7 20 16 8 20 8 348 0 368 -3 9 -16 17 -28 18 -11 1 33 4 99 8
131 5 137 3 116 -50z m459 -115 c46 -96 87 -175 91 -175 4 0 11 10 14 21 4 12
41 92 82 178 88 183 82 187 108 -69 10 -91 22 -173 27 -182 5 -10 20 -18 33
-18 14 0 25 -4 25 -10 0 -11 -62 -13 -96 -4 -20 5 -22 17 -34 162 l-14 157
-75 -157 c-41 -87 -78 -158 -83 -158 -5 0 -42 67 -82 150 -84 171 -79 173 -92
-32 -6 -95 -5 -108 9 -108 9 0 19 -4 22 -10 4 -6 -17 -10 -54 -10 -34 0 -61 4
-61 10 0 6 7 10 15 10 8 0 17 10 20 23 4 18 45 375 45 392 0 3 4 5 8 5 5 0 46
-79 92 -175z m661 115 c-7 -18 -10 -20 -10 -7 -1 21 -39 37 -87 37 l-34 0 0
-85 c0 -96 -3 -93 88 -76 l42 8 0 -33 c0 -18 -4 -36 -10 -39 -5 -3 -10 0 -10
8 0 19 -22 27 -71 27 l-39 0 0 -82 c0 -46 4 -89 9 -96 5 -9 25 -12 62 -10 45
3 55 7 67 28 12 24 12 23 10 -15 l-3 -40 -117 -3 c-76 -2 -118 1 -118 8 0 5 6
10 14 10 8 0 17 7 20 16 8 20 8 348 0 368 -3 9 -16 17 -28 18 -11 1 33 4 99 8
131 5 137 3 116 -50z m434 -238 l50 -53 -3 143 c-3 172 -5 185 -35 191 -12 2
10 5 48 5 51 1 64 -2 48 -8 -23 -9 -23 -11 -23 -209 0 -110 -4 -202 -8 -205
-8 -5 -147 133 -275 271 l-57 62 0 -137 c0 -157 5 -182 31 -182 11 0 19 -4 19
-10 0 -6 -29 -10 -66 -10 -41 0 -63 4 -59 10 3 6 13 10 21 10 12 0 14 33 14
203 0 112 3 207 7 211 4 4 60 -48 123 -116 63 -68 137 -147 165 -176z m1040
279 c117 -53 158 -200 90 -317 -82 -140 -291 -146 -379 -11 -76 119 -21 289
109 335 48 17 136 14 180 -7z m511 -6 c-3 -8 -59 -97 -125 -199 l-120 -186 94
0 c106 0 137 10 152 48 l11 27 1 -27 c1 -15 -3 -38 -9 -52 l-10 -26 -149 0
c-82 0 -152 3 -154 8 -3 4 51 92 119 197 68 104 124 194 124 199 0 12 -171 1
-198 -13 -12 -6 -22 -18 -22 -26 0 -7 -5 -17 -11 -21 -8 -5 -9 6 -4 37 4 24 9
46 10 49 2 3 69 4 150 2 120 -3 146 -6 141 -17z m234 22 c0 -12 153 -393 161
-404 6 -7 20 -13 30 -13 11 0 19 -4 19 -10 0 -5 -25 -10 -55 -10 -41 0 -55 4
-55 14 0 8 -12 47 -26 85 l-26 71 -63 0 -63 0 -21 -62 c-25 -74 -26 -88 -6
-88 8 0 15 -4 15 -10 0 -6 -29 -10 -66 -10 -41 0 -63 4 -59 10 3 6 12 10 20
10 23 0 39 32 111 230 38 104 72 190 76 190 5 0 8 -1 8 -3z m-3789 -18 c87
-30 138 -102 139 -197 0 -61 -15 -103 -56 -151 -48 -58 -91 -71 -236 -71 -79
0 -128 4 -128 10 0 6 6 10 14 10 7 0 16 14 20 31 8 44 7 342 -2 355 -4 7 -16
14 -27 17 -11 2 39 5 111 6 75 1 146 -4 165 -10z m2561 -24 c136 -95 111 -315
-44 -379 -43 -19 -288 -23 -288 -6 0 6 6 10 14 10 7 0 16 10 20 23 8 32 7 350
-2 363 -4 7 -16 14 -27 17 -11 3 48 5 132 4 151 -2 151 -2 195 -32z"/>
<path d="M2527 1553 c-4 -3 -7 -39 -7 -79 0 -71 1 -74 27 -80 16 -4 37 -2 52
7 21 12 27 23 29 62 3 39 -1 51 -22 72 -24 24 -65 33 -79 18z"/>
<path d="M3330 1411 c0 -171 -2 -166 80 -165 93 1 146 62 138 159 -8 92 -58
139 -162 151 l-56 7 0 -152z"/>
<path d="M4068 1554 c-5 -4 -8 -72 -8 -151 0 -162 -2 -158 80 -157 93 1 140
51 140 147 0 63 -26 110 -77 139 -34 20 -123 35 -135 22z"/>
<path d="M3576 950 c-67 -21 -106 -85 -106 -178 0 -125 85 -220 189 -209 55 6
90 32 119 87 52 104 12 248 -82 291 -44 20 -75 22 -120 9z"/>
<path d="M502 764 l3 -189 48 -9 c34 -7 63 -6 95 3 84 22 125 80 126 176 0
121 -73 193 -205 203 l-69 5 2 -189z"/>
<path d="M3012 764 l3 -189 48 -9 c55 -11 123 3 163 32 61 44 79 172 34 250
-35 62 -93 93 -181 100 l-69 5 2 -189z"/>
</g>
</svg>
